<svg xmlns="http://www.w3.org/2000/svg" xmlns:xlink="http://www.w3.org/1999/xlink" width="500" zoomAndPan="magnify" viewBox="0 0 375 374.999991" height="500" preserveAspectRatio="xMidYMid meet" version="1.0"><defs><g/><clipPath id="9e473a2eb8"><path d="M 32 162 L 126.59375 162 L 126.59375 216.578125 L 32 216.578125 Z M 32 162 " clip-rule="nonzero"/></clipPath></defs><path fill="#00b5d5" d="M 43.316406 209.164062 C 45.195312 210.835938 47.675781 211.671875 50.1875 211.632812 L 115.234375 210.46875 L 53.136719 209.460938 C 50.207031 209.417969 47.289062 208.96875 44.523438 208 C 43.375 207.601562 42.214844 207.101562 41.210938 206.484375 C 41.210938 206.484375 41.789062 207.804688 43.316406 209.164062 " fill-opacity="1" fill-rule="nonzero"/><path fill="#00b5d5" d="M 52.421875 179.136719 C 53.464844 175.101562 58 170.34375 58 170.34375 C 68.085938 166.683594 87.988281 166.433594 87.988281 166.433594 C 78.273438 165.089844 61.0625 165.5625 56.503906 169.523438 C 53.253906 172.347656 50.101562 177.585938 48.5625 180.351562 C 48.152344 181.089844 48.765625 181.976562 49.601562 181.847656 C 71.457031 178.535156 101.1875 179.175781 101.1875 179.175781 C 76.53125 175.242188 52.421875 179.136719 52.421875 179.136719 " fill-opacity="1" fill-rule="nonzero"/><path fill="#00b5d5" d="M 64.226562 199.160156 C 68.511719 199.710938 80.265625 200.109375 84.003906 197.394531 C 84.003906 197.394531 70.925781 198.515625 64.125 196.945312 C 57.328125 195.375 53.964844 205.613281 55.382812 207.253906 C 56.804688 208.898438 67.5625 208.375 67.5625 208.375 C 67.5625 208.375 59.144531 207.777344 57.75 205.6875 C 56.355469 203.59375 59.941406 198.613281 64.226562 199.160156 " fill-opacity="1" fill-rule="nonzero"/><path fill="#00b5d5" d="M 39.96875 189.496094 C 39.96875 189.496094 37.875 196.570312 43.851562 198.714844 C 49.828125 200.855469 56.605469 197.167969 56.605469 197.167969 C 56.605469 197.167969 47.242188 198.960938 44.289062 196.011719 C 41.335938 193.058594 42.945312 191.378906 42.945312 191.378906 C 42.945312 191.378906 46.457031 190.519531 49.667969 193.433594 C 52.882812 196.347656 58.671875 193.582031 58.671875 193.582031 C 58.671875 193.582031 52.621094 192.6875 49.132812 189.847656 C 45.644531 187.007812 39.96875 189.496094 39.96875 189.496094 " fill-opacity="1" fill-rule="nonzero"/><g clip-path="url(#9e473a2eb8)"><path fill="#00b5d5" d="M 38.65625 213.679688 C 36.945312 213.667969 35.546875 212.3125 35.492188 210.601562 C 35.269531 203.996094 35.359375 194.480469 35.359375 194.480469 C 37.804688 190.460938 40.613281 187.554688 40.613281 187.554688 C 37.675781 182.671875 46.839844 181.925781 46.839844 181.925781 C 49.382812 175.699219 55.0625 169.023438 55.0625 169.023438 C 63.636719 162.847656 89.980469 163.621094 89.980469 163.621094 C 73.316406 161.078125 57.027344 163.621094 53.742188 166.609375 C 50.453125 169.597656 45.820312 178.863281 45.820312 178.863281 C 45.820312 178.863281 40.441406 180.507812 38.496094 182.175781 C 36.554688 183.84375 37.226562 187.605469 37.226562 187.605469 C 34.539062 190.292969 33.242188 193.132812 33.242188 193.132812 L 32.144531 210.96875 C 31.648438 216.347656 34.835938 216.746094 34.835938 216.746094 L 126.59375 214.453125 L 38.65625 213.679688 " fill-opacity="1" fill-rule="nonzero"/></g><path fill="#00b5d5" d="M 36.582031 184.765625 C 36.582031 184.765625 36.105469 182.515625 38.050781 181.386719 C 38.050781 181.386719 35.660156 181.601562 33.742188 182.25 C 31.824219 182.898438 32.34375 179.484375 35.285156 179.511719 C 38.222656 179.535156 40.167969 180.007812 40.167969 180.007812 C 40.167969 180.007812 42.535156 178.714844 44.824219 178.113281 C 44.824219 178.113281 36.28125 176.046875 32.496094 177.792969 C 28.710938 179.535156 29.800781 185.015625 32.09375 185.613281 C 34.386719 186.210938 36.582031 184.765625 36.582031 184.765625 " fill-opacity="1" fill-rule="nonzero"/><g fill="#00b5d5" fill-opacity="1"><g transform="translate(101.044143, 194.544729)"><g><path d="M 22.90625 0 L 20.84375 -5.59375 L 9.125 -5.59375 L 7.109375 0 L 0.375 0 L 11.890625 -29.421875 L 17.90625 -29.421875 L 29.796875 0 Z M 14.96875 -21.640625 L 11.140625 -11.140625 L 18.828125 -11.140625 Z M 14.96875 -21.640625 "/></g></g></g><g fill="#00b5d5" fill-opacity="1"><g transform="translate(131.225427, 194.544729)"><g><path d="M 13.328125 0.625 C 11.191406 0.625 9.316406 0.195312 7.703125 -0.65625 C 6.097656 -1.507812 4.851562 -2.695312 3.96875 -4.21875 C 3.082031 -5.75 2.640625 -7.535156 2.640625 -9.578125 L 2.640625 -22.703125 L 8.78125 -22.703125 L 8.78125 -10.296875 C 8.78125 -8.671875 9.179688 -7.398438 9.984375 -6.484375 C 10.785156 -5.578125 11.898438 -5.125 13.328125 -5.125 C 14.753906 -5.125 15.859375 -5.585938 16.640625 -6.515625 C 17.429688 -7.441406 17.828125 -8.703125 17.828125 -10.296875 L 17.828125 -22.703125 L 23.953125 -22.703125 L 23.953125 -9.578125 C 23.953125 -7.535156 23.507812 -5.75 22.625 -4.21875 C 21.75 -2.695312 20.507812 -1.507812 18.90625 -0.65625 C 17.3125 0.195312 15.453125 0.625 13.328125 0.625 Z M 13.328125 0.625 "/></g></g></g><g fill="#00b5d5" fill-opacity="1"><g transform="translate(157.833716, 194.544729)"><g><path d="M 14.03125 -5.46875 L 16.8125 -5.46875 L 16.8125 0 L 12.484375 0 C 9.992188 0 8.023438 -0.71875 6.578125 -2.15625 C 5.128906 -3.601562 4.40625 -5.585938 4.40625 -8.109375 L 4.40625 -17.78125 L 0.296875 -17.78125 L 0.296875 -19.078125 L 9.28125 -28.625 L 10.421875 -28.625 L 10.421875 -22.703125 L 16.6875 -22.703125 L 16.6875 -17.78125 L 10.546875 -17.78125 L 10.546875 -8.90625 C 10.546875 -7.8125 10.847656 -6.960938 11.453125 -6.359375 C 12.054688 -5.765625 12.914062 -5.46875 14.03125 -5.46875 Z M 14.03125 -5.46875 "/></g></g></g><g fill="#00b5d5" fill-opacity="1"><g transform="translate(175.908857, 194.544729)"><g><path d="M 13.75 0.625 C 11.394531 0.625 9.289062 0.101562 7.4375 -0.9375 C 5.59375 -1.988281 4.132812 -3.414062 3.0625 -5.21875 C 2 -7.03125 1.46875 -9.070312 1.46875 -11.34375 C 1.46875 -13.644531 2 -15.695312 3.0625 -17.5 C 4.132812 -19.3125 5.59375 -20.734375 7.4375 -21.765625 C 9.289062 -22.804688 11.394531 -23.328125 13.75 -23.328125 C 16.070312 -23.328125 18.15625 -22.804688 20 -21.765625 C 21.851562 -20.734375 23.3125 -19.3125 24.375 -17.5 C 25.4375 -15.695312 25.96875 -13.644531 25.96875 -11.34375 C 25.96875 -9.070312 25.4375 -7.03125 24.375 -5.21875 C 23.3125 -3.414062 21.851562 -1.988281 20 -0.9375 C 18.15625 0.101562 16.070312 0.625 13.75 0.625 Z M 13.75 -5.125 C 15.507812 -5.125 16.945312 -5.695312 18.0625 -6.84375 C 19.1875 -8 19.75 -9.5 19.75 -11.34375 C 19.75 -13.195312 19.1875 -14.695312 18.0625 -15.84375 C 16.945312 -16.988281 15.507812 -17.5625 13.75 -17.5625 C 11.945312 -17.5625 10.484375 -16.988281 9.359375 -15.84375 C 8.242188 -14.695312 7.6875 -13.195312 7.6875 -11.34375 C 7.6875 -9.5 8.242188 -8 9.359375 -6.84375 C 10.484375 -5.695312 11.945312 -5.125 13.75 -5.125 Z M 13.75 -5.125 "/></g></g></g><g fill="#00b5d5" fill-opacity="1"><g transform="translate(203.357852, 194.544729)"><g><path d="M 28.75 -23.25 C 30.320312 -23.25 31.707031 -22.863281 32.90625 -22.09375 C 34.113281 -21.320312 35.0625 -20.257812 35.75 -18.90625 C 36.4375 -17.5625 36.78125 -16.007812 36.78125 -14.25 L 36.78125 0 L 30.640625 0 L 30.640625 -13.234375 C 30.640625 -16.316406 29.488281 -17.859375 27.1875 -17.859375 C 25.84375 -17.859375 24.785156 -17.367188 24.015625 -16.390625 C 23.242188 -15.410156 22.859375 -14.035156 22.859375 -12.265625 L 22.859375 0 L 16.859375 0 L 16.859375 -13.234375 C 16.859375 -16.316406 15.75 -17.859375 13.53125 -17.859375 C 12.132812 -17.859375 11.039062 -17.367188 10.25 -16.390625 C 9.46875 -15.410156 9.078125 -14.035156 9.078125 -12.265625 L 9.078125 0 L 2.9375 0 L 2.9375 -22.703125 L 7.234375 -22.703125 L 8.359375 -19.875 C 9.171875 -20.882812 10.171875 -21.695312 11.359375 -22.3125 C 12.554688 -22.9375 13.828125 -23.25 15.171875 -23.25 C 16.597656 -23.25 17.882812 -22.925781 19.03125 -22.28125 C 20.1875 -21.632812 21.085938 -20.738281 21.734375 -19.59375 C 22.515625 -20.707031 23.519531 -21.59375 24.75 -22.25 C 25.988281 -22.914062 27.320312 -23.25 28.75 -23.25 Z M 28.75 -23.25 "/></g></g></g><g fill="#00b5d5" fill-opacity="1"><g transform="translate(242.786889, 194.544729)"><g><path d="M 21.484375 -22.734375 L 26.0625 -22.734375 L 26.0625 -0.046875 L 21.21875 -0.046875 L 20.71875 -2.0625 C 19.738281 -1.21875 18.625 -0.554688 17.375 -0.078125 C 16.132812 0.390625 14.796875 0.625 13.359375 0.625 C 11.097656 0.625 9.066406 0.101562 7.265625 -0.9375 C 5.472656 -1.988281 4.054688 -3.414062 3.015625 -5.21875 C 1.984375 -7.03125 1.46875 -9.085938 1.46875 -11.390625 C 1.46875 -13.660156 1.984375 -15.695312 3.015625 -17.5 C 4.054688 -19.3125 5.472656 -20.734375 7.265625 -21.765625 C 9.066406 -22.804688 11.097656 -23.328125 13.359375 -23.328125 C 14.816406 -23.328125 16.175781 -23.082031 17.4375 -22.59375 C 18.695312 -22.101562 19.820312 -21.421875 20.8125 -20.546875 Z M 13.875 -5.171875 C 15.050781 -5.171875 16.109375 -5.4375 17.046875 -5.96875 C 17.984375 -6.5 18.71875 -7.234375 19.25 -8.171875 C 19.78125 -9.109375 20.046875 -10.179688 20.046875 -11.390625 C 20.046875 -12.566406 19.78125 -13.625 19.25 -14.5625 C 18.71875 -15.5 17.984375 -16.238281 17.046875 -16.78125 C 16.109375 -17.332031 15.050781 -17.609375 13.875 -17.609375 C 12.664062 -17.609375 11.597656 -17.332031 10.671875 -16.78125 C 9.742188 -16.238281 9.015625 -15.5 8.484375 -14.5625 C 7.953125 -13.625 7.6875 -12.566406 7.6875 -11.390625 C 7.6875 -10.179688 7.953125 -9.113281 8.484375 -8.1875 C 9.015625 -7.269531 9.742188 -6.535156 10.671875 -5.984375 C 11.597656 -5.441406 12.664062 -5.171875 13.875 -5.171875 Z M 13.875 -5.171875 "/></g></g></g><g fill="#00b5d5" fill-opacity="1"><g transform="translate(271.791194, 194.544729)"><g><path d="M 14.03125 -5.46875 L 16.8125 -5.46875 L 16.8125 0 L 12.484375 0 C 9.992188 0 8.023438 -0.71875 6.578125 -2.15625 C 5.128906 -3.601562 4.40625 -5.585938 4.40625 -8.109375 L 4.40625 -17.78125 L 0.296875 -17.78125 L 0.296875 -19.078125 L 9.28125 -28.625 L 10.421875 -28.625 L 10.421875 -22.703125 L 16.6875 -22.703125 L 16.6875 -17.78125 L 10.546875 -17.78125 L 10.546875 -8.90625 C 10.546875 -7.8125 10.847656 -6.960938 11.453125 -6.359375 C 12.054688 -5.765625 12.914062 -5.46875 14.03125 -5.46875 Z M 14.03125 -5.46875 "/></g></g></g><g fill="#00b5d5" fill-opacity="1"><g transform="translate(289.866334, 194.544729)"><g><path d="M 24.96875 -11.4375 C 24.96875 -10.84375 24.925781 -10.238281 24.84375 -9.625 L 7.6875 -9.625 C 7.9375 -8.082031 8.550781 -6.894531 9.53125 -6.0625 C 10.519531 -5.238281 11.753906 -4.828125 13.234375 -4.828125 C 14.304688 -4.828125 15.257812 -5.054688 16.09375 -5.515625 C 16.9375 -5.984375 17.582031 -6.625 18.03125 -7.4375 L 24.5 -7.4375 C 23.664062 -4.96875 22.238281 -3.003906 20.21875 -1.546875 C 18.195312 -0.0976562 15.867188 0.625 13.234375 0.625 C 10.992188 0.625 8.984375 0.101562 7.203125 -0.9375 C 5.429688 -1.988281 4.03125 -3.414062 3 -5.21875 C 1.976562 -7.03125 1.46875 -9.070312 1.46875 -11.34375 C 1.46875 -13.613281 1.976562 -15.648438 3 -17.453125 C 4.03125 -19.265625 5.429688 -20.695312 7.203125 -21.75 C 8.984375 -22.800781 10.992188 -23.328125 13.234375 -23.328125 C 15.566406 -23.328125 17.613281 -22.785156 19.375 -21.703125 C 21.144531 -20.628906 22.519531 -19.195312 23.5 -17.40625 C 24.476562 -15.613281 24.96875 -13.625 24.96875 -11.4375 Z M 13.234375 -18.109375 C 11.867188 -18.109375 10.710938 -17.726562 9.765625 -16.96875 C 8.828125 -16.21875 8.191406 -15.171875 7.859375 -13.828125 L 18.828125 -13.828125 C 17.929688 -16.679688 16.066406 -18.109375 13.234375 -18.109375 Z M 13.234375 -18.109375 "/></g></g></g><g fill="#00b5d5" fill-opacity="1"><g transform="translate(316.264465, 194.544729)"><g><path d="M 19.625 -30.890625 L 25.765625 -30.890625 L 25.765625 0 L 21.21875 0 L 20.515625 -1.890625 C 19.554688 -1.078125 18.472656 -0.445312 17.265625 0 C 16.066406 0.445312 14.78125 0.671875 13.40625 0.671875 C 11.113281 0.671875 9.0625 0.144531 7.25 -0.90625 C 5.445312 -1.957031 4.03125 -3.382812 3 -5.1875 C 1.976562 -7 1.46875 -9.050781 1.46875 -11.34375 C 1.46875 -13.644531 1.976562 -15.695312 3 -17.5 C 4.03125 -19.3125 5.445312 -20.734375 7.25 -21.765625 C 9.0625 -22.804688 11.113281 -23.328125 13.40625 -23.328125 C 14.550781 -23.328125 15.648438 -23.164062 16.703125 -22.84375 C 17.753906 -22.519531 18.726562 -22.066406 19.625 -21.484375 Z M 13.875 -5.125 C 15.070312 -5.125 16.132812 -5.394531 17.0625 -5.9375 C 17.988281 -6.488281 18.722656 -7.234375 19.265625 -8.171875 C 19.816406 -9.109375 20.09375 -10.164062 20.09375 -11.34375 C 20.09375 -12.519531 19.816406 -13.578125 19.265625 -14.515625 C 18.722656 -15.460938 17.988281 -16.207031 17.0625 -16.75 C 16.132812 -17.289062 15.070312 -17.5625 13.875 -17.5625 C 12.695312 -17.5625 11.644531 -17.289062 10.71875 -16.75 C 9.789062 -16.207031 9.050781 -15.460938 8.5 -14.515625 C 7.957031 -13.578125 7.6875 -12.519531 7.6875 -11.34375 C 7.6875 -10.164062 7.957031 -9.109375 8.5 -8.171875 C 9.050781 -7.234375 9.789062 -6.488281 10.71875 -5.9375 C 11.644531 -5.394531 12.695312 -5.125 13.875 -5.125 Z M 13.875 -5.125 "/></g></g></g><g fill="#00b5d5" fill-opacity="1"><g transform="translate(115.778176, 213.059433)"><g><path d="M 3.046875 -10.1875 L 3.046875 0 L 1 0 L 1 -10.1875 Z M 3.046875 -10.1875 "/></g></g></g><g fill="#00b5d5" fill-opacity="1"><g transform="translate(131.512026, 213.059433)"><g><path d="M 9.71875 0 L 7.671875 0 L 3.046875 -6.984375 L 3.046875 0 L 1 0 L 1 -10.203125 L 3.046875 -10.203125 L 7.671875 -3.203125 L 7.671875 -10.203125 L 9.71875 -10.203125 Z M 9.71875 0 "/></g></g></g><g fill="#00b5d5" fill-opacity="1"><g transform="translate(153.913792, 213.059433)"><g><path d="M 4.53125 0.109375 C 3.8125 0.109375 3.164062 -0.0078125 2.59375 -0.25 C 2.03125 -0.5 1.582031 -0.851562 1.25 -1.3125 C 0.925781 -1.769531 0.757812 -2.3125 0.75 -2.9375 L 2.9375 -2.9375 C 2.96875 -2.519531 3.113281 -2.1875 3.375 -1.9375 C 3.644531 -1.695312 4.015625 -1.578125 4.484375 -1.578125 C 4.960938 -1.578125 5.335938 -1.691406 5.609375 -1.921875 C 5.878906 -2.148438 6.015625 -2.445312 6.015625 -2.8125 C 6.015625 -3.113281 5.921875 -3.363281 5.734375 -3.5625 C 5.546875 -3.757812 5.3125 -3.910156 5.03125 -4.015625 C 4.757812 -4.128906 4.378906 -4.253906 3.890625 -4.390625 C 3.234375 -4.585938 2.695312 -4.78125 2.28125 -4.96875 C 1.863281 -5.15625 1.507812 -5.441406 1.21875 -5.828125 C 0.925781 -6.210938 0.78125 -6.726562 0.78125 -7.375 C 0.78125 -7.976562 0.925781 -8.503906 1.21875 -8.953125 C 1.519531 -9.398438 1.941406 -9.738281 2.484375 -9.96875 C 3.035156 -10.207031 3.660156 -10.328125 4.359375 -10.328125 C 5.410156 -10.328125 6.265625 -10.070312 6.921875 -9.5625 C 7.578125 -9.050781 7.941406 -8.335938 8.015625 -7.421875 L 5.765625 -7.421875 C 5.742188 -7.773438 5.59375 -8.066406 5.3125 -8.296875 C 5.039062 -8.523438 4.675781 -8.640625 4.21875 -8.640625 C 3.820312 -8.640625 3.503906 -8.535156 3.265625 -8.328125 C 3.023438 -8.128906 2.90625 -7.832031 2.90625 -7.4375 C 2.90625 -7.164062 2.992188 -6.941406 3.171875 -6.765625 C 3.347656 -6.585938 3.570312 -6.441406 3.84375 -6.328125 C 4.113281 -6.210938 4.488281 -6.082031 4.96875 -5.9375 C 5.632812 -5.738281 6.175781 -5.539062 6.59375 -5.34375 C 7.007812 -5.15625 7.367188 -4.863281 7.671875 -4.46875 C 7.972656 -4.082031 8.125 -3.578125 8.125 -2.953125 C 8.125 -2.398438 7.984375 -1.890625 7.703125 -1.421875 C 7.421875 -0.960938 7.003906 -0.59375 6.453125 -0.3125 C 5.910156 -0.03125 5.269531 0.109375 4.53125 0.109375 Z M 4.53125 0.109375 "/></g></g></g><g fill="#00b5d5" fill-opacity="1"><g transform="translate(174.477146, 213.059433)"><g><path d="M 3.015625 -10.1875 L 3.015625 -3.875 C 3.015625 -3.1875 3.191406 -2.660156 3.546875 -2.296875 C 3.910156 -1.929688 4.421875 -1.75 5.078125 -1.75 C 5.742188 -1.75 6.253906 -1.929688 6.609375 -2.296875 C 6.972656 -2.660156 7.15625 -3.1875 7.15625 -3.875 L 7.15625 -10.1875 L 9.203125 -10.1875 L 9.203125 -3.890625 C 9.203125 -3.023438 9.015625 -2.289062 8.640625 -1.6875 C 8.265625 -1.09375 7.765625 -0.644531 7.140625 -0.34375 C 6.515625 -0.0390625 5.816406 0.109375 5.046875 0.109375 C 4.285156 0.109375 3.597656 -0.0390625 2.984375 -0.34375 C 2.367188 -0.644531 1.878906 -1.09375 1.515625 -1.6875 C 1.160156 -2.289062 0.984375 -3.023438 0.984375 -3.890625 L 0.984375 -10.1875 Z M 3.015625 -10.1875 "/></g></g></g><g fill="#00b5d5" fill-opacity="1"><g transform="translate(196.324473, 213.059433)"><g><path d="M 6.265625 0 L 4.015625 -3.96875 L 3.046875 -3.96875 L 3.046875 0 L 1 0 L 1 -10.1875 L 4.828125 -10.1875 C 5.617188 -10.1875 6.289062 -10.046875 6.84375 -9.765625 C 7.394531 -9.492188 7.8125 -9.117188 8.09375 -8.640625 C 8.375 -8.171875 8.515625 -7.644531 8.515625 -7.0625 C 8.515625 -6.394531 8.316406 -5.789062 7.921875 -5.25 C 7.535156 -4.707031 6.957031 -4.332031 6.1875 -4.125 L 8.625 0 Z M 3.046875 -5.5 L 4.75 -5.5 C 5.3125 -5.5 5.726562 -5.628906 6 -5.890625 C 6.269531 -6.160156 6.40625 -6.535156 6.40625 -7.015625 C 6.40625 -7.484375 6.269531 -7.847656 6 -8.109375 C 5.726562 -8.367188 5.3125 -8.5 4.75 -8.5 L 3.046875 -8.5 Z M 3.046875 -5.5 "/></g></g></g><g fill="#00b5d5" fill-opacity="1"><g transform="translate(217.354724, 213.059433)"><g><path d="M 7.25 -1.9375 L 3.203125 -1.9375 L 2.53125 0 L 0.375 0 L 4.046875 -10.203125 L 6.421875 -10.203125 L 10.078125 0 L 7.921875 0 Z M 6.703125 -3.578125 L 5.21875 -7.84375 L 3.75 -3.578125 Z M 6.703125 -3.578125 "/></g></g></g><g fill="#00b5d5" fill-opacity="1"><g transform="translate(239.479272, 213.059433)"><g><path d="M 9.71875 0 L 7.671875 0 L 3.046875 -6.984375 L 3.046875 0 L 1 0 L 1 -10.203125 L 3.046875 -10.203125 L 7.671875 -3.203125 L 7.671875 -10.203125 L 9.71875 -10.203125 Z M 9.71875 0 "/></g></g></g><g fill="#00b5d5" fill-opacity="1"><g transform="translate(261.88104, 213.059433)"><g><path d="M 0.515625 -5.109375 C 0.515625 -6.109375 0.738281 -7.003906 1.1875 -7.796875 C 1.644531 -8.585938 2.265625 -9.203125 3.046875 -9.640625 C 3.828125 -10.085938 4.703125 -10.3125 5.671875 -10.3125 C 6.816406 -10.3125 7.816406 -10.019531 8.671875 -9.4375 C 9.523438 -8.851562 10.125 -8.046875 10.46875 -7.015625 L 8.109375 -7.015625 C 7.878906 -7.503906 7.550781 -7.867188 7.125 -8.109375 C 6.707031 -8.359375 6.21875 -8.484375 5.65625 -8.484375 C 5.0625 -8.484375 4.535156 -8.34375 4.078125 -8.0625 C 3.617188 -7.78125 3.257812 -7.382812 3 -6.875 C 2.738281 -6.375 2.609375 -5.785156 2.609375 -5.109375 C 2.609375 -4.429688 2.738281 -3.835938 3 -3.328125 C 3.257812 -2.816406 3.617188 -2.421875 4.078125 -2.140625 C 4.535156 -1.867188 5.0625 -1.734375 5.65625 -1.734375 C 6.21875 -1.734375 6.707031 -1.859375 7.125 -2.109375 C 7.550781 -2.359375 7.878906 -2.722656 8.109375 -3.203125 L 10.46875 -3.203125 C 10.125 -2.171875 9.523438 -1.363281 8.671875 -0.78125 C 7.828125 -0.195312 6.828125 0.09375 5.671875 0.09375 C 4.703125 0.09375 3.828125 -0.125 3.046875 -0.5625 C 2.265625 -1.007812 1.644531 -1.628906 1.1875 -2.421875 C 0.738281 -3.210938 0.515625 -4.109375 0.515625 -5.109375 Z M 0.515625 -5.109375 "/></g></g></g><g fill="#00b5d5" fill-opacity="1"><g transform="translate(284.764303, 213.059433)"><g><path d="M 3.046875 -8.53125 L 3.046875 -5.984375 L 6.484375 -5.984375 L 6.484375 -4.359375 L 3.046875 -4.359375 L 3.046875 -1.65625 L 6.921875 -1.65625 L 6.921875 0 L 1 0 L 1 -10.203125 L 6.921875 -10.203125 L 6.921875 -8.53125 Z M 3.046875 -8.53125 "/></g></g></g></svg>