<svg xmlns="http://www.w3.org/2000/svg" xmlns:xlink="http://www.w3.org/1999/xlink" width="40" zoomAndPan="magnify" viewBox="0 0 30 30.000001" height="40" preserveAspectRatio="xMidYMid meet" version="1.0"><defs><g/></defs><g fill="#5ce1e6" fill-opacity="1"><g transform="translate(5.205316, 17.623075)"><g><path d="M 16.609375 3.140625 C 15.359375 3.773438 14.09375 3.878906 12.8125 3.453125 C 11.445312 3.015625 10.269531 2.085938 9.28125 0.671875 C 8.757812 -0.0859375 8.304688 -0.96875 7.921875 -1.96875 L 7.375 -3.421875 L 3.3125 -3.421875 L 2.40625 -1.25 C 2.351562 -1.101562 2.328125 -0.984375 2.328125 -0.890625 C 2.328125 -0.796875 2.34375 -0.695312 2.375 -0.59375 C 2.414062 -0.488281 2.503906 -0.390625 2.640625 -0.296875 C 2.773438 -0.210938 2.921875 -0.171875 3.078125 -0.171875 L 3.21875 -0.171875 L 3.21875 0 L -0.46875 0 L -0.46875 -0.171875 L -0.3125 -0.171875 C -0.0507812 -0.171875 0.207031 -0.25 0.46875 -0.40625 C 0.726562 -0.5625 0.941406 -0.789062 1.109375 -1.09375 L 4.953125 -9.859375 C 4.503906 -10.867188 4.03125 -11.5625 3.53125 -11.9375 C 3.101562 -12.257812 2.695312 -12.421875 2.3125 -12.421875 C 1.925781 -12.421875 1.566406 -12.363281 1.234375 -12.25 L 1.203125 -12.421875 C 2.023438 -12.847656 2.816406 -13.0625 3.578125 -13.0625 C 4.515625 -13.0625 5.359375 -12.691406 6.109375 -11.953125 C 6.835938 -11.234375 7.484375 -10.191406 8.046875 -8.828125 L 10.546875 -2.671875 C 11.484375 -0.335938 12.445312 1.265625 13.4375 2.140625 C 13.832031 2.492188 14.242188 2.738281 14.671875 2.875 C 15.097656 3.007812 15.457031 3.078125 15.75 3.078125 C 16.039062 3.078125 16.320312 3.039062 16.59375 2.96875 Z M 3.609375 -4.15625 L 7.125 -4.15625 L 5.921875 -7.34375 C 5.859375 -7.507812 5.773438 -7.726562 5.671875 -8 C 5.566406 -8.28125 5.5 -8.476562 5.46875 -8.59375 Z M 3.609375 -4.15625 "/></g></g></g><g fill="#5ce1e6" fill-opacity="1"><g transform="translate(11.621528, 25.174892)"><g><path d="M 13.90625 -6.71875 C 13.9375 -6.375 13.953125 -5.941406 13.953125 -5.421875 C 13.953125 -4.898438 13.847656 -4.265625 13.640625 -3.515625 C 13.429688 -2.765625 13.0625 -2.101562 12.53125 -1.53125 C 11.425781 -0.351562 9.910156 0.234375 7.984375 0.234375 C 5.640625 0.234375 3.789062 -0.335938 2.4375 -1.484375 C 1.082031 -2.640625 0.40625 -4.148438 0.40625 -6.015625 C 0.40625 -7.878906 1.09375 -9.390625 2.46875 -10.546875 C 3.84375 -11.703125 5.648438 -12.28125 7.890625 -12.28125 C 8.753906 -12.28125 9.578125 -12.191406 10.359375 -12.015625 C 11.140625 -11.847656 11.785156 -11.628906 12.296875 -11.359375 L 12.328125 -8.390625 L 12.203125 -8.390625 C 12.003906 -9.128906 11.675781 -9.742188 11.21875 -10.234375 C 10.394531 -11.117188 9.28125 -11.5625 7.875 -11.5625 C 6.476562 -11.5625 5.351562 -11.0625 4.5 -10.0625 C 3.644531 -9.0625 3.21875 -7.738281 3.21875 -6.09375 C 3.21875 -4.445312 3.660156 -3.109375 4.546875 -2.078125 C 5.441406 -1.046875 6.664062 -0.515625 8.21875 -0.484375 C 9.90625 -0.484375 11.25 -1.019531 12.25 -2.09375 C 13.25 -3.175781 13.75 -4.640625 13.75 -6.484375 C 13.75 -6.566406 13.75 -6.644531 13.75 -6.71875 Z M 13.90625 -6.71875 "/></g></g></g><g fill="#5ce1e6" fill-opacity="1"><g transform="translate(14.80531, 16.712946)"><g><path d="M 6.953125 -0.171875 L 7.171875 -0.171875 L 7.171875 0 L 1.9375 0 L 1.9375 -0.171875 L 2.171875 -0.171875 C 2.460938 -0.171875 2.710938 -0.273438 2.921875 -0.484375 C 3.140625 -0.703125 3.253906 -0.957031 3.265625 -1.25 L 3.265625 -11.34375 L 1.625 -11.265625 C 0.550781 -11.222656 0.015625 -10.820312 0.015625 -10.0625 C 0.015625 -9.75 0.117188 -9.488281 0.328125 -9.28125 C 0.546875 -9.070312 0.84375 -8.96875 1.21875 -8.96875 C 1.25 -8.96875 1.285156 -8.96875 1.328125 -8.96875 L 1.328125 -8.859375 C 1.097656 -8.773438 0.898438 -8.734375 0.734375 -8.734375 C 0.222656 -8.734375 -0.171875 -8.921875 -0.453125 -9.296875 C -0.640625 -9.546875 -0.734375 -9.832031 -0.734375 -10.15625 C -0.734375 -10.65625 -0.535156 -11.066406 -0.140625 -11.390625 C 0.253906 -11.722656 0.863281 -11.914062 1.6875 -11.96875 C 1.832031 -11.976562 2.3125 -12.003906 3.125 -12.046875 C 4.988281 -12.109375 6.335938 -12.222656 7.171875 -12.390625 L 7.203125 -12.21875 C 6.710938 -12.132812 6.363281 -11.96875 6.15625 -11.71875 C 5.957031 -11.46875 5.851562 -11.09375 5.84375 -10.59375 L 5.84375 -1.25 C 5.851562 -0.957031 5.960938 -0.703125 6.171875 -0.484375 C 6.390625 -0.273438 6.648438 -0.171875 6.953125 -0.171875 Z M 6.953125 -0.171875 "/></g></g></g></svg>